<svg xmlns="http://www.w3.org/2000/svg" height="480" width="640" viewBox="0 0 640 480"><defs><clipPath id="a"><path fill-opacity=".67" d="M-85.333 0h682.67v512h-682.67z"/></clipPath></defs><g clip-path="url(#a)" fill-rule="evenodd"><path fill="#009" d="M-.042 0h640.344v480.256h-640.344v-480.256z"/><path fill="#FC0" d="M132.987 0l479.297 480.506v-480.256l-479.297-.25z"/><path fill="#FFF" d="M492.61 451.677l-26.137-19.097-26.863 19.005 10.157-31.182-26.433-19.255 32.749.067 10.182-31.134 10.06 31.173 32.758.093-26.21 19.376 9.737 30.955zm76.254 9.702l-32.758-.093-10.06-31.173-10.182 31.134-32.749-.067 26.433 19.255-10.157 31.182 26.863-19.005 26.137 19.097-9.736-30.954 26.209-19.377zm-145.897-100.562l26.21-19.376-32.758-.093-10.06-31.173-10.182 31.134-32.749-.067 26.433 19.255-10.157 31.182 26.863-19.005 26.137 19.097-9.737-30.955zm-60.365-60.449l26.21-19.376-32.758-.093-10.06-31.173-10.182 31.134-32.749-.067 26.433 19.255-10.157 31.182 26.863-19.005 26.137 19.097-9.737-30.955zm-59.699-59.698l26.209-19.377-32.757-.093-10.06-31.173-10.182 31.134-32.749-.067 26.433 19.255-10.157 31.182 26.863-19.007 26.137 19.098-9.737-30.953zm-60.449-60.282l26.209-19.377-32.757-.093-10.06-31.173-10.182 31.134-32.749-.067 26.433 19.255-10.157 31.182 26.863-19.006 26.137 19.098-9.737-30.954zm-59.698-59.949l26.209-19.377-32.757-.093-10.061-31.173-10.182 31.134-32.749-.067 26.433 19.255-10.157 31.182 26.863-19.006 26.137 19.098-9.736-30.954zm-60.032-60.032l26.209-19.377-32.757-.093-10.061-31.173-10.182 31.134-32.749-.067 26.433 19.255-10.156 31.182 26.863-19.006 26.137 19.098-9.737-30.954zm-60.032-60.032l26.209-19.376-32.757-.093-10.061-31.173-10.182 31.134-32.749-.067 26.433 19.255-10.156 31.182 26.863-19.007 26.137 19.098-9.737-30.953z"/></g></svg>